<?xml version="1.0" encoding="UTF-8"?>
<svg id="Capa_2" data-name="Capa 2" xmlns="http://www.w3.org/2000/svg" viewBox="0 0 1589.33 347.91">
  <g id="Capa_1-2" data-name="Capa 1">
    <g>
      <path d="m1067.23,83.43c-2.23,1.78-2.23,3.51-2.64,4.99-3.29,11.86-6.5,23.74-9.74,35.61-9.89,36.23-19.78,72.46-29.67,108.69-9.09,33.3-18.15,66.61-27.28,99.9-.79,2.89-1.19,5.95-3.16,8.78-1.45.09-3.03.26-4.6.27-24.15.02-48.3.02-72.45,0-5.13,0-5.21-.08-6.55-5.01-8.99-33-17.96-66-26.94-99-12.34-45.34-24.69-90.67-37.03-136-1.43-5.24-2.84-10.49-4.28-15.73-.25-.89-.65-1.74-.95-2.53-1.25-.04-1.1.78-1.12,1.33-.07,1.76-.05,3.52-.05,5.27.01,81.22.03,162.44.03,243.66,0,2.36.36,4.78-.66,7.31-.85.21-1.73.53-2.64.63-1.11.12-2.24.07-3.35.07-25.91,0-51.82,0-77.72,0-1.6,0-3.2-.06-4.78-.21-1.06-.1-1.81-.81-1.92-1.85-.19-1.74-.26-3.5-.26-5.26-.02-23.02-.01-46.05-.01-69.07.01-85.54.03-171.07.05-256.61,0-2.08.06-4.15.18-6.22.08-1.26.84-2.08,2.11-2.23,1.27-.14,2.55-.2,3.83-.2,45.26,0,90.52-.01,135.78,0,1.59,0,3.17.12,4.5.18,1.78,1.42,1.97,3.22,2.43,4.89,3.49,12.63,6.97,25.27,10.44,37.9,10.42,37.91,20.83,75.82,31.24,113.73,4.06,14.79,8.07,29.6,12.16,44.39.49,1.78.65,3.76,2.23,5.38,1.42-1.55,1.6-3.32,2.05-4.96,4.22-15.41,8.43-30.83,12.64-46.25,10.53-38.54,21.05-77.08,31.57-115.63,3.11-11.41,6.22-22.82,9.33-34.23,1.47-5.38,1.48-5.41,7.22-5.41,45.1-.01,90.2,0,135.3,0,1.72,0,3.53-.31,5.41.96.16.84.46,1.9.54,2.97.11,1.43.05,2.88.05,4.31,0,108.4,0,216.8,0,325.2,0,2.37-.15,4.75-.24,7.33-1.29.32-2.32.69-3.38.82-1.1.14-2.24.06-3.35.06-25.75,0-51.5,0-77.24-.01-2.04,0-4.15.35-6.34-.77-.16-.84-.45-1.75-.49-2.66-.09-1.92-.05-3.84-.05-5.75-.01-80.9-.02-161.8-.04-242.69,0-1.89-.07-3.77-.12-6.36Z" style="fill: #1a747f; stroke-width: 0px;"/>
      <path d="m326.83,1.09c2.11-1.27,3.74-1.05,5.32-1.05,33.58-.01,67.16-.01,100.74,0,1.58,0,3.21-.22,4.99.82.17.84.49,1.89.56,2.96.11,1.59.04,3.2.04,4.79,0,66.02,0,132.04-.01,198.07,0,6.09.15,12.15,1.46,18.12,4.75,21.57,17.96,35.21,39.1,41.06,9.6,2.66,19.46,3.39,29.47,2.44,7.05-.67,13.96-1.76,20.56-4.33,17.78-6.91,28.69-19.72,32.69-38.37,1.31-6.11,1.81-12.31,1.81-18.57-.03-66.5-.02-133,0-199.5,0-2.2-.29-4.45.61-6.82.92-.21,1.81-.53,2.72-.6,1.43-.11,2.88-.07,4.31-.07,32.3,0,64.6,0,96.9,0,1.76,0,3.51.06,5.26.19,1.07.08,1.79.79,1.9,1.84.15,1.42.17,2.87.17,4.31.01,13.75,0,27.5,0,41.24,0,51.79.05,103.59-.03,155.38-.03,19.16-2.98,37.85-9.42,55.98-7.46,20.99-19.8,38.55-36.53,53.13-6.4,5.58-13.22,10.59-20.5,14.97-11.36,6.84-23.72,11.09-36.52,14.15-10.58,2.53-21.29,4.4-32.15,5.14-8.77.6-17.54,1.22-26.32,1.5-5.74.18-11.5-.3-17.25-.38-17.93-.24-35.75-1.8-53.5-4.24-10.94-1.5-21.67-4.07-32.09-7.83-15.25-5.51-28.74-13.91-40.59-24.93-6.33-5.88-12.28-12.12-17.59-18.97-8.95-11.56-14.85-24.55-18.61-38.61-2.69-10.04-5.18-20.13-6.42-30.46-.68-5.7-1.24-11.46-1.25-17.2-.1-66.5-.08-133-.08-199.5,0-1.57.15-3.14.23-4.66Z" style="fill: #1a747f; stroke-width: 0px;"/>
      <path d="m1453.29.34c.6.98,1.12,1.62,1.41,2.35,44.85,112.2,89.68,224.4,134.49,336.61.17.42.1.93.14,1.39-.94,1.33-2.32.96-3.52.97-7.36.05-14.71.03-22.07.03-27.98-.01-55.97-.02-83.95-.04-2.05,0-4.11-.15-5.79-.22-1.75-1.6-2.02-3.4-2.54-5.05-4.59-14.47-9.14-28.96-13.7-43.43-.53-1.68-1.12-3.33-1.62-5.02-.52-1.75-1.62-2.7-3.46-2.75-1.12-.03-2.24-.08-3.36-.08-39.02,0-78.03,0-117.05,0-5.61,0-5.65.02-7.33,5.37-4.7,14.94-9.36,29.89-14.06,44.83-.62,1.96-1.39,3.88-2.17,6.05-1.73.12-3.3.33-4.87.33-34.54,0-69.08,0-103.62-.04-1.54,0-3.2.37-4.77-1.01.02-1.84.95-3.54,1.64-5.28,6.51-16.33,13.06-32.64,19.58-48.97,35.35-88.46,70.69-176.91,106.03-265.37,2.31-5.79,4.74-11.53,6.91-17.37,1-2.68,2.64-3.83,5.41-3.61.79.06,1.6,0,2.4,0,36.62,0,73.24,0,109.86.01,2.05,0,4.1.2,6.01.3Zm-22.1,210.73l-40.04-121.4-39.6,120.97,79.64.42Z" style="fill: #1a747f; stroke-width: 0px;"/>
      <path d="m112.8,257.47c.96.21,2.01.58,3.08.65,1.75.12,3.52.06,5.27.06,53.08,0,106.16,0,159.25.02,2.19,0,4.46-.42,6.47.57,1.26,1.69.85,3.51.86,5.23.04,11.03.02,22.06.02,33.09,0,12.95.01,25.89-.01,38.84,0,1.72.32,3.53-.88,5.22-.71.15-1.47.41-2.24.45-1.59.09-3.2.07-4.79.07-90.5,0-180.99,0-271.49,0-1.92,0-3.84,0-5.75-.15-1.56-.12-2.29-.85-2.43-2.44-.15-1.75-.15-3.51-.16-5.27C0,293.38,0,252.94,0,212.5,0,144.57,0,76.64,0,8.71c0-1.92-.02-3.84.11-5.75C.25,1.05.95.34,2.75.16,4.02.03,5.3.03,6.58.03c33.1,0,66.19,0,99.29,0,6.2,0,6.22.03,6.22,6.51,0,81.2,0,162.4.02,243.6,0,2.36-.41,4.79.69,7.33Z" style="fill: #1a747f; stroke-width: 0px;"/>
    </g>
  </g>
</svg>